PathFileType	4	(X/Y/Z)	/Users/itak/Documents/Research/Walk-IL/dataset/trc/00260_00009.trc
DataRate	CameraRate	NumFrames	NumMarkers	Units	OrigDataRate	OrigDataStartFrame	OrigNumFrames
100.000000	100.000000	4	53	mm	100.000000	431	493
Frame#	Time	RPSI			LPSI			L3			STRN			T10			C7			CLAV			RBAK			LBAK			LSHO			LUPA			LAEL			LAOL			LWTS			LWPS			LFRA			LIFD			LHPS			LHTS			RSHO			RUPA			RAEL			RAOL			RWTS			RWPS			RFRA			RIFD			RHTS			RHPS			RBHD			LFHD			RFHD			LBHD			LHIP			RHIP			RASI			LASI			LKNE			LTHI			LANK			LTIP			LTOE			LMT1			LMT5			LHEE			RKNE			RTHI			RTIP			RTOE			RMT1			RMT5			RHEE			RANK			
		X1	Y1	Z1	X2	Y2	Z2	X3	Y3	Z3	X4	Y4	Z4	X5	Y5	Z5	X6	Y6	Z6	X7	Y7	Z7	X8	Y8	Z8	X9	Y9	Z9	X10	Y10	Z10	X11	Y11	Z11	X12	Y12	Z12	X13	Y13	Z13	X14	Y14	Z14	X15	Y15	Z15	X16	Y16	Z16	X17	Y17	Z17	X18	Y18	Z18	X19	Y19	Z19	X20	Y20	Z20	X21	Y21	Z21	X22	Y22	Z22	X23	Y23	Z23	X24	Y24	Z24	X25	Y25	Z25	X26	Y26	Z26	X27	Y27	Z27	X28	Y28	Z28	X29	Y29	Z29	X30	Y30	Z30	X31	Y31	Z31	X32	Y32	Z32	X33	Y33	Z33	X34	Y34	Z34	X35	Y35	Z35	X36	Y36	Z36	X37	Y37	Z37	X38	Y38	Z38	X39	Y39	Z39	X40	Y40	Z40	X41	Y41	Z41	X42	Y42	Z42	X43	Y43	Z43	X44	Y44	Z44	X45	Y45	Z45	X46	Y46	Z46	X47	Y47	Z47	X48	Y48	Z48	X49	Y49	Z49	X50	Y50	Z50	X51	Y51	Z51	X52	Y52	Z52	X53	Y53	Z53	

432	4.31	76.23546600341797	1037.392578125	-356.7381896972656	-44.75732803344727	1042.326538085938	-361.5094299316406	-2.307108640670776	1119.198852539062	-350.5401916503906	5.96900463104248	1320.401245117188	-589.2833251953125	4.047675132751465	1245.542724609375	-339.3338928222656	2.948832273483276	1509.841674804688	-387.1600646972656	9.843644142150879	1437.490112304688	-557.76171875	73.12458801269531	1366.065185546875	-317.7052307128906	-107.5164260864258	1472.395629882812	-370.3922729492188	-161.4365386962891	1478.41455078125	-459.9316101074219	-240.668701171875	1359.176635742188	-437.1461486816406	-266.5413208007812	1149.217529296875	-463.1929931640625	-217.8603210449219	1128.341186523438	-394.0418701171875	-210.6894683837891	924.6058349609375	-576.2952880859375	-290.2778625488281	905.2369384765625	-549.8630981445312	-282.6218566894531	1044.14453125	-493.5398864746094	-214.7916870117188	733.7490844726562	-589.2471923828125	-284.5100708007812	818.3939819335938	-573.7709350585938	-233.1450347900391	826.9545288085938	-617.2705078125	173.6106109619141	1472.632202148438	-441.4609375	237.8483734130859	1406.051513671875	-423.9025268554688	280.36328125	1125.669067382812	-420.6846618652344	190.5922393798828	1117.802978515625	-391.2525939941406	238.3522033691406	918.5012817382812	-569.5687866210938	303.1329956054688	901.8492431640625	-518.6589965820312	293.1028747558594	1059.191772460938	-452.0421447753906	226.3103332519531	729.8844604492188	-589.5799560546875	252.7529907226562	799.9447631835938	-616.1959228515625	304.7331848144531	796.9744262695312	-564.9155883789062	56.59394073486328	1663.008544921875	-410.9952392578125	-29.63731002807617	1731.475830078125	-609.8331909179688	70.43539428710938	1728.654052734375	-605.6341552734375	-74.22227478027344	1678.22998046875	-460.4434204101562	-181.9767913818359	990.330322265625	-463.1408081054688	184.9625854492188	1002.675659179688	-454.1187744140625	143.1259918212891	1043.264282226562	-545.20166015625	-130.0645599365234	1031.271362304688	-566.3428344726562	-125.491569519043	502.7677307128906	-493.6812744140625	-161.0740051269531	645.2544555664062	-497.0336303710938	-107.9711532592773	33.70637893676758	-396.7080383300781	-126.7301559448242	280.0003356933594	-438.7001647949219	-40.07703018188477	40.53531265258789	-609.541015625	-0.3355270624160767	35.89286041259766	-537.7341918945312	-116.9895858764648	35.2738151550293	-525.0249633789062	-58.31694412231445	38.5969123840332	-332.0137634277344	146.2065582275391	513.3822631835938	-503.6390686035156	191.9379730224609	780.4181518554688	-519.5890502929688	128.3145446777344	393.7540283203125	-505.3154907226562	83.99730682373047	41.70948791503906	-616.0042114257812	38.74353790283203	37.8792610168457	-561.3175048828125	150.4047241210938	35.46076202392578	-512.3031616210938	59.581298828125	34.1541748046875	-342.7880859375	120.1908569335938	35.02369689941406	-403.0934448242188	
433	4.32	76.30465698242188	1037.441650390625	-356.8403625488281	-44.71139907836914	1042.374145507812	-361.6903991699219	-2.198766469955444	1119.250366210938	-350.6623840332031	6.172394752502441	1320.35302734375	-589.50537109375	4.073080062866211	1245.595703125	-339.5060729980469	3.023366212844849	1509.874877929688	-387.4692077636719	9.909379005432129	1437.441528320312	-557.9969482421875	73.11294555664062	1366.12060546875	-317.9382629394531	-107.4705581665039	1472.43115234375	-370.7149047851562	-161.3697662353516	1478.40234375	-460.3106689453125	-240.6430206298828	1359.180541992188	-437.4158020019531	-266.5507507324219	1149.21923828125	-463.1762390136719	-217.830810546875	1128.349365234375	-394.0657653808594	-211.1258087158203	924.1878662109375	-575.6006469726562	-290.6786499023438	905.0186157226562	-549.073486328125	-282.8222045898438	1044.08642578125	-493.2513122558594	-215.5532989501953	733.236328125	-587.801513671875	-285.1936950683594	818.08740234375	-572.6768188476562	-233.7483520507812	826.3626708984375	-616.2024536132812	173.6842193603516	1472.635986328125	-441.6849365234375	237.9286041259766	1406.083374023438	-424.0861511230469	280.4457702636719	1125.692504882812	-420.686767578125	190.7159271240234	1117.838745117188	-391.2992248535156	238.5874633789062	918.36328125	-569.4078979492188	303.353271484375	901.814697265625	-518.4664306640625	293.256591796875	1059.203979492188	-451.9612731933594	226.5538787841797	729.7508544921875	-589.2948608398438	253.0182647705078	799.7883911132812	-615.8947143554688	305.0269470214844	796.88525390625	-564.6054077148438	56.66437530517578	1663.0458984375	-411.341552734375	-29.45971870422363	1731.421142578125	-610.244384765625	70.64022064208984	1728.615234375	-605.9976806640625	-74.14342498779297	1678.252197265625	-460.8681945800781	-182.1398010253906	990.3680419921875	-462.9936828613281	185.1598815917969	1002.685729980469	-454.1051330566406	142.5558013916016	1042.661743164062	-544.830810546875	-129.9386901855469	1031.25146484375	-566.56396484375	-125.4822311401367	502.7671508789062	-493.7143859863281	-161.0423889160156	645.2470092773438	-497.1571960449219	-107.9561767578125	33.70956420898438	-396.7089538574219	-126.7129669189453	280.0036010742188	-438.7031555175781	-40.07220458984375	40.5286979675293	-609.5474853515625	-0.3342002034187317	35.8899040222168	-537.7353515625	-116.9913558959961	35.27225494384766	-525.0238037109375	-58.29696273803711	38.61090850830078	-332.0208129882812	146.2610168457031	513.3367919921875	-503.6830444335938	192.0034027099609	780.387451171875	-519.6295776367188	128.3669738769531	393.7348327636719	-505.3082885742188	83.99944305419922	41.70949172973633	-616.007568359375	38.75225067138672	37.88277435302734	-561.3256225585938	150.4012603759766	35.44698333740234	-512.3017578125	59.58219909667969	34.19408416748047	-342.7972717285156	120.1886596679688	35.02257919311523	-403.0950012207031	
434	4.33	76.36972045898438	1037.493408203125	-356.9400634765625	-44.65750122070312	1042.4208984375	-361.8572082519531	-2.080468416213989	1119.289306640625	-350.7593688964844	6.361474514007568	1320.313598632812	-589.7171020507812	4.105576992034912	1245.646362304688	-339.671875	3.083967447280884	1509.909057617188	-387.7684020996094	9.967047691345215	1437.389404296875	-558.2157592773438	73.08522033691406	1366.171508789062	-318.1655883789062	-107.4248123168945	1472.4609375	-371.017578125	-161.3009185791016	1478.3916015625	-460.6719360351562	-240.6245574951172	1359.1796875	-437.6727600097656	-266.5610656738281	1149.216430664062	-463.1549377441406	-217.7913513183594	1128.33984375	-394.0923461914062	-211.5130615234375	923.7894897460938	-574.929931640625	-291.0564270019531	904.8055419921875	-548.30712890625	-283.0089721679688	1044.024291992188	-492.9652404785156	-216.2794036865234	732.747802734375	-586.4080810546875	-285.8306274414062	817.7930908203125	-571.6119995117188	-234.3401947021484	825.7858276367188	-615.1768188476562	173.7460632324219	1472.64501953125	-441.8960266113281	238.0029907226562	1406.115966796875	-424.2526550292969	280.5169372558594	1125.718627929688	-420.6856689453125	190.8166198730469	1117.874755859375	-391.349609375	238.8293762207031	918.229736328125	-569.24755859375	303.5836791992188	901.7853393554688	-518.2681274414062	293.4135131835938	1059.22119140625	-451.8700561523438	226.8087768554688	729.6248779296875	-588.9981689453125	253.3051452636719	799.6336059570312	-615.5966186523438	305.3341674804688	796.8021240234375	-564.2907104492188	56.72278213500977	1663.089233398438	-411.6818542480469	-29.31100845336914	1731.35888671875	-610.6456298828125	70.83631134033203	1728.568603515625	-606.3546752929688	-74.07769775390625	1678.274169921875	-461.2791442871094	-182.3206939697266	990.3753662109375	-462.8323059082031	185.3378295898438	1002.697937011719	-454.1016845703125	142.1608276367188	1042.22314453125	-544.5706787109375	-129.8094329833984	1031.227783203125	-566.7778930664062	-125.4504318237305	502.7611999511719	-493.7221984863281	-161.0101318359375	645.2398681640625	-497.2650146484375	-107.9426193237305	33.70975875854492	-396.7076721191406	-126.704833984375	280.0094604492188	-438.7015991210938	-40.06957626342773	40.52298736572266	-609.5535278320312	-0.3351582288742065	35.88884735107422	-537.7365112304688	-116.996467590332	35.26903533935547	-525.022216796875	-58.27962875366211	38.62267684936523	-332.0253601074219	146.3228912353516	513.2972412109375	-503.7292785644531	192.0749206542969	780.359130859375	-519.6666259765625	128.4218444824219	393.7174987792969	-505.294921875	84.00149536132812	41.70954895019531	-616.0108032226562	38.761474609375	37.88767623901367	-561.3336791992188	150.3978424072266	35.43465042114258	-512.30126953125	59.58205032348633	34.23325347900391	-342.8062438964844	120.1861953735352	35.02138900756836	-403.0961608886719	
435	4.34	76.42984771728516	1037.54833984375	-357.0364990234375	-44.59931564331055	1042.467651367188	-362.0113525390625	-1.950782179832458	1119.31591796875	-350.8302917480469	6.532444953918457	1320.28173828125	-589.9177856445312	4.144600391387939	1245.695068359375	-339.8366394042969	3.130778074264526	1509.94384765625	-388.0571899414062	10.01960849761963	1437.334594726562	-558.4215698242188	73.04692840576172	1366.218383789062	-318.3853759765625	-107.3775482177734	1472.486083984375	-371.3018493652344	-161.2298889160156	1478.38134765625	-461.0136413574219	-240.6117706298828	1359.175415039062	-437.9172668457031	-266.5725402832031	1149.20947265625	-463.1298522949219	-217.7438049316406	1128.322387695312	-394.1167297363281	-211.8504638671875	923.4109497070312	-574.2885131835938	-291.4107360839844	904.599365234375	-547.5697631835938	-283.1759338378906	1043.959106445312	-492.6823120117188	-216.9630432128906	732.2852172851562	-585.0744018554688	-286.4107055664062	817.5103759765625	-570.5814819335938	-234.914794921875	825.2280883789062	-614.1978759765625	173.7977447509766	1472.658935546875	-442.0945739746094	238.0703277587891	1406.148071289062	-424.4011535644531	280.5785522460938	1125.74755859375	-420.6812133789062	190.8955841064453	1117.911010742188	-391.4033813476562	239.0778961181641	918.1022338867188	-569.0873413085938	303.823974609375	901.76123046875	-518.0634155273438	293.5727233886719	1059.24267578125	-451.769775390625	227.0670471191406	729.5103759765625	-588.6946411132812	253.6173095703125	799.4816284179688	-615.3043823242188	305.6524353027344	796.7277221679688	-563.9740600585938	56.76920700073242	1663.137573242188	-412.0148315429688	-29.1903247833252	1731.291137695312	-611.03662109375	71.02345275878906	1728.5146484375	-606.704345703125	-74.02273559570312	1678.294921875	-461.6744384765625	-182.5177612304688	990.3723754882812	-462.65087890625	185.4912414550781	1002.712158203125	-454.1100769042969	141.9431304931641	1041.949462890625	-544.423095703125	-129.680908203125	1031.198852539062	-566.9845581054688	-125.3991622924805	502.7499694824219	-493.7079467773438	-160.9792175292969	645.2329711914062	-497.3536071777344	-107.9312438964844	33.70712280273438	-396.7040405273438	-126.7023620605469	280.0170593261719	-438.6949462890625	-40.06968307495117	40.51835250854492	-609.5587768554688	-0.3387317955493927	35.88962554931641	-537.7379150390625	-117.0053329467773	35.26404571533203	-525.0203247070312	-58.26565933227539	38.63203048706055	-332.0274963378906	146.3908996582031	513.2640991210938	-503.7765197753906	192.1564788818359	780.334228515625	-519.695556640625	128.47900390625	393.7024841308594	-505.2763671875	84.00371551513672	41.70952606201172	-616.013671875	38.77077865600586	37.89376831054688	-561.3412475585938	150.3941802978516	35.42345809936523	-512.3007202148438	59.58061218261719	34.27138900756836	-342.8153076171875	120.1835479736328	35.02064895629883	-403.0966796875	
